#!OML:ASF H:\LiuWeirdWalks\Patient Classification 1\Patient 1\Session 1\male.ASF
:FULLY-SPECIFIED
:DEGREES
269
root 2.29011 17.6032 28.5878 -1.24918 9.15927 0.163314
lowerback 7.22249 -3.34171 1.27556
upperback 0.394785 -4.16353 4.74688
thorax -3.37202 -2.05656 4.62805
lowerneck -20.9823 4.014 8.77118
upperneck 5.90359 4.56375 -12.9141
head 5.70473 1.46415 -5.09819
rclavicle -3.52843e-014 4.29375e-014
rhumerus -42.8015 -36.7291 -53.9469
rradius 30.0553
rwrist -5.71966
rhand -5.04687 -6.28569
rfingers 7.12502
rthumb 20.7484 -35.1965
lclavicle -3.52843e-014 4.29375e-014
lhumerus -34.8219 -9.97875 79.3492
lradius 50.5624
lwrist -7.63057
lhand -20.7434 -18.4456
lfingers 7.12502
lthumb 5.62206 11.4599
rfemur -29.517 -9.32494 20.5375
rtibia 38.6268
rfoot 2.32772 -16.7336
rtoes -4.3784
lfemur -4.0468 -3.51757 -14.2083
ltibia 66.2958
lfoot 4.61436 5.63266
ltoes -12.3433
270
root 2.27167 17.6855 28.7282 -1.21331 9.55112 -0.0601943
lowerback 7.06929 -3.26502 1.43509
upperback 0.566472 -4.06328 4.70811
thorax -3.12884 -2.01235 4.46883
lowerneck -21.5567 3.93656 8.58456
upperneck 6.00377 4.4673 -12.8159
head 5.80826 1.39882 -5.04804
rclavicle -2.71341e-014 4.92986e-014
rhumerus -41.7198 -35.6536 -55.9245
rradius 30.2068
rwrist -5.13153
rhand -4.32931 -6.33422
rfingers 7.12502
rthumb 21.4377 -35.1681
lclavicle -2.71341e-014 4.92986e-014
lhumerus -35.7671 -10.528 80.7927
lradius 49.4109
lwrist -9.55737
lhand -19.372 -17.5451
lfingers 7.12502
lthumb 6.94602 12.321
rfemur -28.6673 -9.77714 20.8992
rtibia 37.8329
rfoot 2.54289 -17.0514
rtoes -4.57135
lfemur -5.68346 -3.09922 -13.8114
ltibia 67.2457
lfoot 4.45589 5.46393
ltoes -12.5409
271
root 2.25243 17.7623 28.8658 -1.25524 9.83676 -0.349049
lowerback 7.0096 -3.18378 1.52236
upperback 0.758447 -3.95822 4.73196
thorax -2.90731 -1.9639 4.4219
lowerneck -22.0663 3.9082 8.47017
upperneck 6.051 4.4299 -12.807
head 5.89624 1.36038 -5.03244
rclavicle 1.2424e-014 -2.38542e-014
rhumerus -40.5016 -34.448 -57.9015
rradius 30.3266
rwrist -4.61958
rhand -4.02541 -6.16647
rfingers 7.12502
rthumb 21.7296 -34.9669
lclavicle 1.2424e-014 -2.38542e-014
lhumerus -36.6958 -10.8023 82.1718
lradius 48.2661
lwrist -10.7597
lhand -17.7685 -16.4698
lfingers 7.12502
lthumb 8.49376 13.3394
rfemur -27.7934 -10.1327 21.3324
rtibia 37.0788
rfoot 2.78874 -17.3374
rtoes -4.81951
lfemur -7.16882 -2.48308 -13.3256
ltibia 68.0276
lfoot 4.20378 5.39601
ltoes -12.8777
272
root 2.23308 17.8337 29.0015 -1.38814 10.0207 -0.689215
lowerback 7.03316 -3.0765 1.60974
upperback 0.974477 -3.81566 4.77047
thorax -2.70856 -1.89621 4.39223
lowerneck -22.5005 3.87725 8.38721
upperneck 6.05583 4.38686 -12.8323
head 5.96012 1.32069 -5.03387
rclavicle -1.59028e-015 -1.59028e-015
rhumerus -39.2363 -33.096 -59.8679
rradius 30.4291
rwrist -4.22717
rhand -4.16806 -5.81508
rfingers 7.12502
rthumb 21.5926 -34.6313
lclavicle -1.59028e-015 -1.59028e-015
lhumerus -37.5818 -10.9085 83.4644
lradius 47.1178
lwrist -11.2874
lhand -15.9924 -15.2622
lfingers 7.12502
lthumb 10.2075 14.4701
rfemur -26.8758 -10.3881 21.8017
rtibia 36.3771
rfoot 3.05587 -17.556
rtoes -5.12469
lfemur -8.46787 -1.69768 -12.7782
ltibia 68.6315
lfoot 3.86683 5.3986
ltoes -13.339
273
root 2.21497 17.8997 29.136 -1.60899 10.1218 -1.08314
lowerback 7.14841 -2.9863 1.64414
upperback 1.19858 -3.69515 4.85216
thorax -2.54476 -1.83855 4.44564
lowerneck -22.7913 3.90469 8.41357
upperneck 5.97625 4.40513 -12.9493
head 5.98716 1.31259 -5.07547
rclavicle 4.08502e-014 7.95139e-015
rhumerus -37.9056 -31.2754 -61.9527
rradius 30.6248
rwrist -4.11077
rhand -4.68282 -5.3613
rfingers 7.12502
rthumb 21.0981 -34.2335
lclavicle 4.08502e-014 7.95139e-015
lhumerus -38.4635 -10.719 84.63
lradius 45.9552
lwrist -11.3328
lhand -14.1367 -14.0002
lfingers 7.12502
lthumb 11.9973 15.6359
rfemur -25.9114 -10.5825 22.298
rtibia 35.7394
rfoot 3.32811 -17.6718
rtoes -5.49603
lfemur -9.58004 -0.790904 -12.1805
ltibia 69.0622
lfoot 3.44381 5.44603
ltoes -13.9271
274
root 2.20219 17.9602 29.2687 -1.881 10.2145 -1.4169
lowerback 7.31952 -2.95252 1.54152
upperback 1.42352 -3.65798 4.94584
thorax -2.39652 -1.82175 4.59975
lowerneck -22.9258 4.01737 8.57664
upperneck 5.82841 4.51406 -13.1584
head 5.98483 1.35106 -5.15818
rclavicle 3.67752e-015 -2.8625e-014
rhumerus -36.5402 -28.9724 -64.1094
rradius 30.8973
rwrist -4.17238
rhand -5.47986 -4.89413
rfingers 7.12502
rthumb 20.3323 -33.8498
lclavicle 3.67752e-015 -2.8625e-014
lhumerus -39.3489 -10.2008 85.6554
lradius 44.7816
lwrist -10.864
lhand -12.3141 -12.7549
lfingers 7.12502
lthumb 13.7543 16.7704
rfemur -24.9239 -10.881 22.6772
rtibia 35.1932
rfoot 3.57704 -17.5695
rtoes -5.96792
lfemur -10.5195 0.123092 -11.7088
ltibia 69.3173
lfoot 2.98957 5.54066
ltoes -14.4034
275
root 2.19127 18.0154 29.3991 -2.15109 10.2554 -1.69646
lowerback 7.50723 -2.93944 1.29902
upperback 1.64931 -3.65909 5.05214
thorax -2.24429 -1.82426 4.8506
lowerneck -23.0187 4.19548 8.81128
upperneck 5.67103 4.69536 -13.398
head 5.98456 1.42548 -5.25368
rclavicle 3.8266e-014 -2.8625e-014
rhumerus -35.1902 -26.2504 -66.282
rradius 31.2867
rwrist -4.4085
rhand -6.46815 -4.5377
rfingers 7.12502
rthumb 19.3823 -33.5917
lclavicle 3.8266e-014 -2.8625e-014
lhumerus -40.1819 -9.36997 86.5147
lradius 43.5944
lwrist -10.0897
lhand -10.5444 -11.591
lfingers 7.12502
lthumb 15.4593 17.8108
rfemur -23.9951 -11.1386 22.9656
rtibia 34.7666
rfoot 3.78617 -17.3635
rtoes -6.48958
lfemur -11.3701 1.08026 -11.3254
ltibia 69.4188
lfoot 2.49591 5.61808
ltoes -14.9604
276
root 2.1809 18.0654 29.5287 -2.37028 10.2491 -1.84569
lowerback 7.64465 -2.89244 0.963732
upperback 1.85678 -3.62646 5.08675
thorax -2.0845 -1.81063 5.07344
lowerneck -23.0677 4.34994 9.03173
upperneck 5.5392 4.84501 -13.5687
head 5.97953 1.49077 -5.3277
rclavicle -1.48095e-014 -4.29375e-014
rhumerus -34.037 -23.4148 -68.3267
rradius 31.8058
rwrist -4.68469
rhand -7.56097 -4.30113
rfingers 7.12502
rthumb 18.3312 -33.4574
lclavicle -1.48095e-014 -4.29375e-014
lhumerus -40.9723 -8.46455 87.2122
lradius 42.3986
lwrist -9.07163
lhand -8.88821 -10.5397
lfingers 7.12502
lthumb 17.054 18.7317
rfemur -23.1746 -11.3219 23.0947
rtibia 34.4886
rfoot 3.93912 -17.1015
rtoes -7.05089
lfemur -12.1811 2.05125 -11.1182
ltibia 69.3774
lfoot 1.98693 5.66461
ltoes -15.4282
277
root 2.17045 18.1108 29.6558 -2.48643 10.2037 -1.81136
lowerback 7.73781 -2.83764 0.396194
upperback 2.04147 -3.60431 5.08566
thorax -1.91093 -1.8033 5.38963
lowerneck -23.1377 4.53751 9.2716
upperneck 5.41656 5.03204 -13.736
head 5.98603 1.57381 -5.39915
rclavicle -4.09496e-014 4.77083e-015
rhumerus -32.9639 -20.4192 -70.2599
rradius 32.4225
rwrist -4.96449
rhand -8.69193 -4.18166
rfingers 7.12502
rthumb 17.243 -33.4367
lclavicle -4.09496e-014 4.77083e-015
lhumerus -41.7087 -7.3373 87.7369
lradius 41.2186
lwrist -7.91217
lhand -7.33368 -9.56729
lfingers 7.12502
lthumb 18.5499 19.5683
rfemur -22.5272 -11.4179 23.0226
rtibia 34.3706
rfoot 4.02455 -16.8324
rtoes -7.59467
lfemur -13.0236 3.01652 -11.1555
ltibia 69.2081
lfoot 1.49749 5.67296
ltoes -15.8494
